<mxfile host="app.diagrams.net" modified="2023-07-13T13:51:25.659Z" agent="Mozilla/5.0 (Windows NT 10.0; Win64; x64) AppleWebKit/537.36 (KHTML, like Gecko) Chrome/114.0.0.0 Safari/537.36" etag="VPMhMY78yRXlCJFKEKZe" version="21.6.2" type="github" pages="2">
  <diagram id="NW82Yb8lo8uIPGSzrrqR" name="Stand alone system service">
    <mxGraphModel dx="1195" dy="663" grid="1" gridSize="10" guides="1" tooltips="1" connect="1" arrows="1" fold="1" page="1" pageScale="1" pageWidth="850" pageHeight="1100" math="0" shadow="0">
      <root>
        <mxCell id="0" />
        <mxCell id="1" parent="0" />
        <mxCell id="TpWDd9Q6oJiw9YrBC5TO-1" value="Пользователь" style="swimlane;startSize=20;horizontal=0;html=1;whiteSpace=wrap;" vertex="1" parent="1">
          <mxGeometry x="40" y="40" width="690" height="120" as="geometry" />
        </mxCell>
        <mxCell id="TpWDd9Q6oJiw9YrBC5TO-2" value="" style="points=[[0.145,0.145,0],[0.5,0,0],[0.855,0.145,0],[1,0.5,0],[0.855,0.855,0],[0.5,1,0],[0.145,0.855,0],[0,0.5,0]];shape=mxgraph.bpmn.event;html=1;verticalLabelPosition=bottom;labelBackgroundColor=#ffffff;verticalAlign=top;align=center;perimeter=ellipsePerimeter;outlineConnect=0;aspect=fixed;outline=standard;symbol=general;" vertex="1" parent="TpWDd9Q6oJiw9YrBC5TO-1">
          <mxGeometry x="40" y="30" width="50" height="50" as="geometry" />
        </mxCell>
        <mxCell id="TpWDd9Q6oJiw9YrBC5TO-3" value="Запуск асинхронного проведения документа&lt;br&gt;по IDDocReestr" style="points=[[0.25,0,0],[0.5,0,0],[0.75,0,0],[1,0.25,0],[1,0.5,0],[1,0.75,0],[0.75,1,0],[0.5,1,0],[0.25,1,0],[0,0.75,0],[0,0.5,0],[0,0.25,0]];shape=mxgraph.bpmn.task;whiteSpace=wrap;rectStyle=rounded;size=10;html=1;container=1;expand=0;collapsible=0;taskMarker=abstract;" vertex="1" parent="TpWDd9Q6oJiw9YrBC5TO-1">
          <mxGeometry x="130" y="20" width="140" height="70" as="geometry" />
        </mxCell>
        <mxCell id="TpWDd9Q6oJiw9YrBC5TO-4" style="edgeStyle=orthogonalEdgeStyle;rounded=0;orthogonalLoop=1;jettySize=auto;html=1;entryX=0;entryY=0.5;entryDx=0;entryDy=0;entryPerimeter=0;" edge="1" parent="TpWDd9Q6oJiw9YrBC5TO-1" source="TpWDd9Q6oJiw9YrBC5TO-2" target="TpWDd9Q6oJiw9YrBC5TO-3">
          <mxGeometry relative="1" as="geometry" />
        </mxCell>
        <mxCell id="TpWDd9Q6oJiw9YrBC5TO-5" style="edgeStyle=orthogonalEdgeStyle;rounded=0;orthogonalLoop=1;jettySize=auto;html=1;" edge="1" parent="TpWDd9Q6oJiw9YrBC5TO-1" source="TpWDd9Q6oJiw9YrBC5TO-6" target="TpWDd9Q6oJiw9YrBC5TO-7">
          <mxGeometry relative="1" as="geometry" />
        </mxCell>
        <mxCell id="TpWDd9Q6oJiw9YrBC5TO-6" value="" style="points=[[0.145,0.145,0],[0.5,0,0],[0.855,0.145,0],[1,0.5,0],[0.855,0.855,0],[0.5,1,0],[0.145,0.855,0],[0,0.5,0]];shape=mxgraph.bpmn.event;html=1;verticalLabelPosition=bottom;labelBackgroundColor=#ffffff;verticalAlign=top;align=center;perimeter=ellipsePerimeter;outlineConnect=0;aspect=fixed;outline=standard;symbol=general;" vertex="1" parent="TpWDd9Q6oJiw9YrBC5TO-1">
          <mxGeometry x="410" y="30" width="50" height="50" as="geometry" />
        </mxCell>
        <mxCell id="TpWDd9Q6oJiw9YrBC5TO-7" value="Просмотр результатов проведения в ПО SCOUT" style="points=[[0.25,0,0],[0.5,0,0],[0.75,0,0],[1,0.25,0],[1,0.5,0],[1,0.75,0],[0.75,1,0],[0.5,1,0],[0.25,1,0],[0,0.75,0],[0,0.5,0],[0,0.25,0]];shape=mxgraph.bpmn.task;whiteSpace=wrap;rectStyle=rounded;size=10;html=1;container=1;expand=0;collapsible=0;taskMarker=abstract;" vertex="1" parent="TpWDd9Q6oJiw9YrBC5TO-1">
          <mxGeometry x="510" y="20" width="140" height="70" as="geometry" />
        </mxCell>
        <mxCell id="TpWDd9Q6oJiw9YrBC5TO-8" value="SendMessage" style="swimlane;startSize=20;horizontal=0;html=1;whiteSpace=wrap;fillColor=#dae8fc;strokeColor=#6c8ebf;" vertex="1" parent="1">
          <mxGeometry x="40" y="180" width="320" height="120" as="geometry" />
        </mxCell>
        <mxCell id="TpWDd9Q6oJiw9YrBC5TO-9" value="&lt;br&gt;Постановка&lt;br&gt;IDDocReestr&lt;br&gt;&amp;nbsp;в очередь" style="points=[[0.25,0,0],[0.5,0,0],[0.75,0,0],[1,0.25,0],[1,0.5,0],[1,0.75,0],[0.75,1,0],[0.5,1,0],[0.25,1,0],[0,0.75,0],[0,0.5,0],[0,0.25,0]];shape=mxgraph.bpmn.task;whiteSpace=wrap;rectStyle=rounded;size=10;html=1;container=1;expand=0;collapsible=0;taskMarker=receive;" vertex="1" parent="TpWDd9Q6oJiw9YrBC5TO-8">
          <mxGeometry x="130" y="20" width="140" height="90" as="geometry" />
        </mxCell>
        <mxCell id="TpWDd9Q6oJiw9YrBC5TO-10" style="edgeStyle=orthogonalEdgeStyle;rounded=0;orthogonalLoop=1;jettySize=auto;html=1;" edge="1" parent="1" source="TpWDd9Q6oJiw9YrBC5TO-3" target="TpWDd9Q6oJiw9YrBC5TO-9">
          <mxGeometry relative="1" as="geometry" />
        </mxCell>
        <mxCell id="ihOgxTLWPpydT3B-3XMP-1" value="Service" style="swimlane;html=1;childLayout=stackLayout;resizeParent=1;resizeParentMax=0;horizontal=1;startSize=20;horizontalStack=0;whiteSpace=wrap;" vertex="1" parent="1">
          <mxGeometry x="40" y="320" width="710" height="560" as="geometry" />
        </mxCell>
        <mxCell id="ihOgxTLWPpydT3B-3XMP-2" value="Основной поток" style="swimlane;html=1;startSize=20;horizontal=0;" vertex="1" parent="ihOgxTLWPpydT3B-3XMP-1">
          <mxGeometry y="20" width="710" height="240" as="geometry" />
        </mxCell>
        <mxCell id="sJ3FZOWGZ5J9foTturGN-43" style="edgeStyle=orthogonalEdgeStyle;rounded=0;orthogonalLoop=1;jettySize=auto;html=1;" edge="1" parent="ihOgxTLWPpydT3B-3XMP-2" source="5k3Ovl3KZAPvR6B6kmBa-1" target="sJ3FZOWGZ5J9foTturGN-23">
          <mxGeometry relative="1" as="geometry" />
        </mxCell>
        <mxCell id="5k3Ovl3KZAPvR6B6kmBa-1" value="Планировщик" style="points=[[0.145,0.145,0],[0.5,0,0],[0.855,0.145,0],[1,0.5,0],[0.855,0.855,0],[0.5,1,0],[0.145,0.855,0],[0,0.5,0]];shape=mxgraph.bpmn.event;html=1;verticalLabelPosition=bottom;labelBackgroundColor=#ffffff;verticalAlign=top;align=center;perimeter=ellipsePerimeter;outlineConnect=0;aspect=fixed;outline=standard;symbol=timer;" vertex="1" parent="ihOgxTLWPpydT3B-3XMP-2">
          <mxGeometry x="40" y="55" width="50" height="50" as="geometry" />
        </mxCell>
        <mxCell id="sJ3FZOWGZ5J9foTturGN-23" value="Чтение очереди" style="points=[[0.25,0,0],[0.5,0,0],[0.75,0,0],[1,0.25,0],[1,0.5,0],[1,0.75,0],[0.75,1,0],[0.5,1,0],[0.25,1,0],[0,0.75,0],[0,0.5,0],[0,0.25,0]];shape=mxgraph.bpmn.task;whiteSpace=wrap;rectStyle=rounded;size=10;html=1;container=1;expand=0;collapsible=0;taskMarker=abstract;" vertex="1" parent="ihOgxTLWPpydT3B-3XMP-2">
          <mxGeometry x="140" y="40" width="120" height="80" as="geometry" />
        </mxCell>
        <mxCell id="sJ3FZOWGZ5J9foTturGN-30" value="" style="points=[[0.25,0.25,0],[0.5,0,0],[0.75,0.25,0],[1,0.5,0],[0.75,0.75,0],[0.5,1,0],[0.25,0.75,0],[0,0.5,0]];shape=mxgraph.bpmn.gateway2;html=1;verticalLabelPosition=bottom;labelBackgroundColor=#ffffff;verticalAlign=top;align=center;perimeter=rhombusPerimeter;outlineConnect=0;outline=end;symbol=general;" vertex="1" parent="ihOgxTLWPpydT3B-3XMP-2">
          <mxGeometry x="350" y="55" width="50" height="50" as="geometry" />
        </mxCell>
        <mxCell id="sJ3FZOWGZ5J9foTturGN-22" style="edgeStyle=orthogonalEdgeStyle;rounded=0;orthogonalLoop=1;jettySize=auto;html=1;entryX=0;entryY=0.5;entryDx=0;entryDy=0;entryPerimeter=0;" edge="1" parent="ihOgxTLWPpydT3B-3XMP-2" source="sJ3FZOWGZ5J9foTturGN-23" target="sJ3FZOWGZ5J9foTturGN-30">
          <mxGeometry relative="1" as="geometry" />
        </mxCell>
        <mxCell id="sJ3FZOWGZ5J9foTturGN-38" value="" style="points=[[0.145,0.145,0],[0.5,0,0],[0.855,0.145,0],[1,0.5,0],[0.855,0.855,0],[0.5,1,0],[0.145,0.855,0],[0,0.5,0]];shape=mxgraph.bpmn.event;html=1;verticalLabelPosition=bottom;labelBackgroundColor=#ffffff;verticalAlign=top;align=center;perimeter=ellipsePerimeter;outlineConnect=0;aspect=fixed;outline=throwing;symbol=general;" vertex="1" parent="ihOgxTLWPpydT3B-3XMP-2">
          <mxGeometry x="630" y="55" width="50" height="50" as="geometry" />
        </mxCell>
        <mxCell id="sJ3FZOWGZ5J9foTturGN-28" style="edgeStyle=orthogonalEdgeStyle;rounded=0;orthogonalLoop=1;jettySize=auto;html=1;exitX=1;exitY=0.5;exitDx=0;exitDy=0;exitPerimeter=0;entryX=0;entryY=0.5;entryDx=0;entryDy=0;entryPerimeter=0;" edge="1" parent="ihOgxTLWPpydT3B-3XMP-2" source="sJ3FZOWGZ5J9foTturGN-30" target="sJ3FZOWGZ5J9foTturGN-38">
          <mxGeometry relative="1" as="geometry">
            <mxPoint x="325" y="195" as="targetPoint" />
            <Array as="points">
              <mxPoint x="390" y="80" />
              <mxPoint x="390" y="80" />
            </Array>
          </mxGeometry>
        </mxCell>
        <mxCell id="sJ3FZOWGZ5J9foTturGN-29" value="Нет сообщений&lt;br&gt;в очереди" style="edgeLabel;html=1;align=center;verticalAlign=middle;resizable=0;points=[];" vertex="1" connectable="0" parent="sJ3FZOWGZ5J9foTturGN-28">
          <mxGeometry x="0.2221" relative="1" as="geometry">
            <mxPoint x="-9" y="-20" as="offset" />
          </mxGeometry>
        </mxCell>
        <mxCell id="ihOgxTLWPpydT3B-3XMP-3" value="Параллельные потоки" style="swimlane;html=1;startSize=20;horizontal=0;" vertex="1" parent="ihOgxTLWPpydT3B-3XMP-1">
          <mxGeometry y="260" width="710" height="300" as="geometry" />
        </mxCell>
        <mxCell id="sJ3FZOWGZ5J9foTturGN-52" value="" style="points=[[0.25,0,0],[0.5,0,0],[0.75,0,0],[1,0.25,0],[1,0.5,0],[1,0.75,0],[0.75,1,0],[0.5,1,0],[0.25,1,0],[0,0.75,0],[0,0.5,0],[0,0.25,0]];shape=mxgraph.bpmn.task;whiteSpace=wrap;rectStyle=rounded;size=10;html=1;container=1;expand=0;collapsible=0;taskMarker=abstract;isLoopMultiParallel=1;" vertex="1" parent="ihOgxTLWPpydT3B-3XMP-3">
          <mxGeometry x="40" y="21.25" width="250" height="258.75" as="geometry" />
        </mxCell>
        <mxCell id="sJ3FZOWGZ5J9foTturGN-46" value="Группировка документов&lt;br&gt;t_Async_DocReestr_PostingResults" style="points=[[0.25,0,0],[0.5,0,0],[0.75,0,0],[1,0.25,0],[1,0.5,0],[1,0.75,0],[0.75,1,0],[0.5,1,0],[0.25,1,0],[0,0.75,0],[0,0.5,0],[0,0.25,0]];shape=mxgraph.bpmn.task;whiteSpace=wrap;rectStyle=rounded;size=10;html=1;container=1;expand=0;collapsible=0;taskMarker=abstract;" vertex="1" parent="sJ3FZOWGZ5J9foTturGN-52">
          <mxGeometry x="8.93" y="8.75" width="231.07" height="52.5" as="geometry" />
        </mxCell>
        <mxCell id="sJ3FZOWGZ5J9foTturGN-47" value="Провести документа по IDDocReestr&lt;br&gt;&lt;i&gt;p_DocumentGL&lt;/i&gt;" style="points=[[0.25,0,0],[0.5,0,0],[0.75,0,0],[1,0.25,0],[1,0.5,0],[1,0.75,0],[0.75,1,0],[0.5,1,0],[0.25,1,0],[0,0.75,0],[0,0.5,0],[0,0.25,0]];shape=mxgraph.bpmn.task;whiteSpace=wrap;rectStyle=rounded;size=10;html=1;container=1;expand=0;collapsible=0;taskMarker=abstract;" vertex="1" parent="sJ3FZOWGZ5J9foTturGN-52">
          <mxGeometry x="8.93" y="88.75" width="231.07" height="52.5" as="geometry" />
        </mxCell>
        <mxCell id="sJ3FZOWGZ5J9foTturGN-48" style="edgeStyle=orthogonalEdgeStyle;rounded=0;orthogonalLoop=1;jettySize=auto;html=1;entryX=0.5;entryY=0;entryDx=0;entryDy=0;entryPerimeter=0;" edge="1" parent="sJ3FZOWGZ5J9foTturGN-52" source="sJ3FZOWGZ5J9foTturGN-46" target="sJ3FZOWGZ5J9foTturGN-47">
          <mxGeometry relative="1" as="geometry" />
        </mxCell>
        <mxCell id="sJ3FZOWGZ5J9foTturGN-49" value="Обновить статус по результатам проведения t_Async_DocReestr_PostingResults" style="points=[[0.25,0,0],[0.5,0,0],[0.75,0,0],[1,0.25,0],[1,0.5,0],[1,0.75,0],[0.75,1,0],[0.5,1,0],[0.25,1,0],[0,0.75,0],[0,0.5,0],[0,0.25,0]];shape=mxgraph.bpmn.task;whiteSpace=wrap;rectStyle=rounded;size=10;html=1;container=1;expand=0;collapsible=0;taskMarker=abstract;" vertex="1" parent="sJ3FZOWGZ5J9foTturGN-52">
          <mxGeometry x="8.93" y="168.75" width="231.07" height="52.5" as="geometry" />
        </mxCell>
        <mxCell id="sJ3FZOWGZ5J9foTturGN-50" style="edgeStyle=orthogonalEdgeStyle;rounded=0;orthogonalLoop=1;jettySize=auto;html=1;" edge="1" parent="sJ3FZOWGZ5J9foTturGN-52" source="sJ3FZOWGZ5J9foTturGN-47" target="sJ3FZOWGZ5J9foTturGN-49">
          <mxGeometry relative="1" as="geometry" />
        </mxCell>
        <mxCell id="sJ3FZOWGZ5J9foTturGN-26" style="edgeStyle=orthogonalEdgeStyle;rounded=0;orthogonalLoop=1;jettySize=auto;html=1;exitX=0.5;exitY=1;exitDx=0;exitDy=0;exitPerimeter=0;entryX=0.5;entryY=0;entryDx=0;entryDy=0;entryPerimeter=0;" edge="1" parent="ihOgxTLWPpydT3B-3XMP-1" source="sJ3FZOWGZ5J9foTturGN-30" target="sJ3FZOWGZ5J9foTturGN-52">
          <mxGeometry relative="1" as="geometry">
            <mxPoint x="390" y="115" as="sourcePoint" />
            <mxPoint x="339.9999999999998" y="200.0344827586207" as="targetPoint" />
            <Array as="points">
              <mxPoint x="375" y="190" />
              <mxPoint x="165" y="190" />
            </Array>
          </mxGeometry>
        </mxCell>
        <mxCell id="sJ3FZOWGZ5J9foTturGN-27" value="Есть сообщения&lt;br&gt;для обработки" style="edgeLabel;html=1;align=center;verticalAlign=middle;resizable=0;points=[];" vertex="1" connectable="0" parent="sJ3FZOWGZ5J9foTturGN-26">
          <mxGeometry x="-0.4596" y="3" relative="1" as="geometry">
            <mxPoint x="-67" y="-23" as="offset" />
          </mxGeometry>
        </mxCell>
        <mxCell id="sJ3FZOWGZ5J9foTturGN-54" style="edgeStyle=orthogonalEdgeStyle;rounded=0;orthogonalLoop=1;jettySize=auto;html=1;" edge="1" parent="ihOgxTLWPpydT3B-3XMP-1" source="sJ3FZOWGZ5J9foTturGN-52" target="sJ3FZOWGZ5J9foTturGN-38">
          <mxGeometry relative="1" as="geometry" />
        </mxCell>
      </root>
    </mxGraphModel>
  </diagram>
  <diagram name="Service Broker one queue" id="dTzd0b9WJNJ9mMKjrLkf">
    <mxGraphModel dx="1195" dy="263" grid="1" gridSize="10" guides="1" tooltips="1" connect="1" arrows="1" fold="1" page="0" pageScale="1" pageWidth="850" pageHeight="1100" math="0" shadow="0">
      <root>
        <mxCell id="0" />
        <mxCell id="1" parent="0" />
        <mxCell id="ofMcQzHs0EKGXhN8fsgD-15" value="ServiceBroker" style="swimlane;html=1;childLayout=stackLayout;resizeParent=1;resizeParentMax=0;horizontal=1;startSize=20;horizontalStack=0;whiteSpace=wrap;" parent="1" vertex="1">
          <mxGeometry x="70" y="980" width="840" height="880" as="geometry" />
        </mxCell>
        <mxCell id="ofMcQzHs0EKGXhN8fsgD-16" value="TargetService" style="swimlane;html=1;startSize=20;horizontal=0;" parent="ofMcQzHs0EKGXhN8fsgD-15" vertex="1">
          <mxGeometry y="20" width="840" height="520" as="geometry">
            <mxRectangle y="20" width="840" height="30" as="alternateBounds" />
          </mxGeometry>
        </mxCell>
        <mxCell id="ofMcQzHs0EKGXhN8fsgD-45" value="Launcher" style="swimlane;startSize=20;horizontal=0;html=1;whiteSpace=wrap;fillColor=#dae8fc;strokeColor=#6c8ebf;" parent="ofMcQzHs0EKGXhN8fsgD-16" vertex="1">
          <mxGeometry x="130" y="10" width="620" height="480" as="geometry">
            <mxRectangle x="130" y="10" width="40" height="80" as="alternateBounds" />
          </mxGeometry>
        </mxCell>
        <mxCell id="ofMcQzHs0EKGXhN8fsgD-47" style="edgeStyle=orthogonalEdgeStyle;rounded=0;orthogonalLoop=1;jettySize=auto;html=1;entryX=0;entryY=0.5;entryDx=0;entryDy=0;entryPerimeter=0;" parent="ofMcQzHs0EKGXhN8fsgD-45" source="ofMcQzHs0EKGXhN8fsgD-42" target="ofMcQzHs0EKGXhN8fsgD-46" edge="1">
          <mxGeometry relative="1" as="geometry" />
        </mxCell>
        <mxCell id="ofMcQzHs0EKGXhN8fsgD-42" value="Чтение сообщения из очереди TargetQueue" style="points=[[0.25,0,0],[0.5,0,0],[0.75,0,0],[1,0.25,0],[1,0.5,0],[1,0.75,0],[0.75,1,0],[0.5,1,0],[0.25,1,0],[0,0.75,0],[0,0.5,0],[0,0.25,0]];shape=mxgraph.bpmn.task;whiteSpace=wrap;rectStyle=rounded;size=10;html=1;container=1;expand=0;collapsible=0;taskMarker=abstract;" parent="ofMcQzHs0EKGXhN8fsgD-45" vertex="1">
          <mxGeometry x="40" y="55" width="120" height="80" as="geometry" />
        </mxCell>
        <mxCell id="ofMcQzHs0EKGXhN8fsgD-52" style="edgeStyle=orthogonalEdgeStyle;rounded=0;orthogonalLoop=1;jettySize=auto;html=1;entryX=0;entryY=0.5;entryDx=0;entryDy=0;entryPerimeter=0;exitX=0.5;exitY=0;exitDx=0;exitDy=0;exitPerimeter=0;" parent="ofMcQzHs0EKGXhN8fsgD-45" source="ofMcQzHs0EKGXhN8fsgD-46" target="ofMcQzHs0EKGXhN8fsgD-51" edge="1">
          <mxGeometry relative="1" as="geometry" />
        </mxCell>
        <mxCell id="ofMcQzHs0EKGXhN8fsgD-53" value="EndDialog" style="edgeLabel;html=1;align=center;verticalAlign=middle;resizable=0;points=[];" parent="ofMcQzHs0EKGXhN8fsgD-52" vertex="1" connectable="0">
          <mxGeometry x="-0.225" y="2" relative="1" as="geometry">
            <mxPoint x="24" y="-7" as="offset" />
          </mxGeometry>
        </mxCell>
        <mxCell id="ofMcQzHs0EKGXhN8fsgD-69" style="edgeStyle=orthogonalEdgeStyle;rounded=0;orthogonalLoop=1;jettySize=auto;html=1;entryX=0;entryY=0.5;entryDx=0;entryDy=0;entryPerimeter=0;exitX=1;exitY=0.5;exitDx=0;exitDy=0;exitPerimeter=0;" parent="ofMcQzHs0EKGXhN8fsgD-45" source="ofMcQzHs0EKGXhN8fsgD-46" target="ofMcQzHs0EKGXhN8fsgD-68" edge="1">
          <mxGeometry relative="1" as="geometry">
            <mxPoint x="310" y="107.5" as="sourcePoint" />
          </mxGeometry>
        </mxCell>
        <mxCell id="ofMcQzHs0EKGXhN8fsgD-70" value="RequestMessage" style="edgeLabel;html=1;align=center;verticalAlign=middle;resizable=0;points=[];" parent="ofMcQzHs0EKGXhN8fsgD-69" vertex="1" connectable="0">
          <mxGeometry x="-0.4596" y="3" relative="1" as="geometry">
            <mxPoint x="25" y="-11" as="offset" />
          </mxGeometry>
        </mxCell>
        <mxCell id="ofMcQzHs0EKGXhN8fsgD-77" style="edgeStyle=orthogonalEdgeStyle;rounded=0;orthogonalLoop=1;jettySize=auto;html=1;exitX=0.5;exitY=1;exitDx=0;exitDy=0;exitPerimeter=0;entryX=0.5;entryY=0;entryDx=0;entryDy=0;entryPerimeter=0;" parent="ofMcQzHs0EKGXhN8fsgD-45" source="ofMcQzHs0EKGXhN8fsgD-46" target="ofMcQzHs0EKGXhN8fsgD-79" edge="1">
          <mxGeometry relative="1" as="geometry">
            <mxPoint x="245" y="207.5" as="targetPoint" />
          </mxGeometry>
        </mxCell>
        <mxCell id="ofMcQzHs0EKGXhN8fsgD-78" value="Нет сообщений&lt;br&gt;в очереди" style="edgeLabel;html=1;align=center;verticalAlign=middle;resizable=0;points=[];" parent="ofMcQzHs0EKGXhN8fsgD-77" vertex="1" connectable="0">
          <mxGeometry x="0.2221" relative="1" as="geometry">
            <mxPoint x="45" y="-10" as="offset" />
          </mxGeometry>
        </mxCell>
        <mxCell id="ofMcQzHs0EKGXhN8fsgD-46" value="" style="points=[[0.25,0.25,0],[0.5,0,0],[0.75,0.25,0],[1,0.5,0],[0.75,0.75,0],[0.5,1,0],[0.25,0.75,0],[0,0.5,0]];shape=mxgraph.bpmn.gateway2;html=1;verticalLabelPosition=bottom;labelBackgroundColor=#ffffff;verticalAlign=top;align=center;perimeter=rhombusPerimeter;outlineConnect=0;outline=end;symbol=general;" parent="ofMcQzHs0EKGXhN8fsgD-45" vertex="1">
          <mxGeometry x="220" y="70" width="50" height="50" as="geometry" />
        </mxCell>
        <mxCell id="ofMcQzHs0EKGXhN8fsgD-110" style="edgeStyle=orthogonalEdgeStyle;rounded=0;orthogonalLoop=1;jettySize=auto;html=1;entryX=0.5;entryY=0;entryDx=0;entryDy=0;entryPerimeter=0;exitX=1;exitY=0.25;exitDx=0;exitDy=0;exitPerimeter=0;" parent="ofMcQzHs0EKGXhN8fsgD-45" source="ofMcQzHs0EKGXhN8fsgD-51" target="ofMcQzHs0EKGXhN8fsgD-42" edge="1">
          <mxGeometry relative="1" as="geometry">
            <Array as="points">
              <mxPoint x="520" y="41" />
              <mxPoint x="520" y="10" />
              <mxPoint x="100" y="10" />
            </Array>
          </mxGeometry>
        </mxCell>
        <mxCell id="ofMcQzHs0EKGXhN8fsgD-51" value="Завершить диалог" style="points=[[0.25,0,0],[0.5,0,0],[0.75,0,0],[1,0.25,0],[1,0.5,0],[1,0.75,0],[0.75,1,0],[0.5,1,0],[0.25,1,0],[0,0.75,0],[0,0.5,0],[0,0.25,0]];shape=mxgraph.bpmn.task;whiteSpace=wrap;rectStyle=rounded;size=10;html=1;container=1;expand=0;collapsible=0;taskMarker=abstract;" parent="ofMcQzHs0EKGXhN8fsgD-45" vertex="1">
          <mxGeometry x="370" y="32.5" width="120" height="35" as="geometry" />
        </mxCell>
        <mxCell id="ofMcQzHs0EKGXhN8fsgD-72" style="edgeStyle=orthogonalEdgeStyle;rounded=0;orthogonalLoop=1;jettySize=auto;html=1;entryX=0.511;entryY=0.027;entryDx=0;entryDy=0;entryPerimeter=0;" parent="ofMcQzHs0EKGXhN8fsgD-45" source="ofMcQzHs0EKGXhN8fsgD-68" target="ofMcQzHs0EKGXhN8fsgD-71" edge="1">
          <mxGeometry relative="1" as="geometry">
            <Array as="points">
              <mxPoint x="465" y="120" />
              <mxPoint x="455" y="120" />
            </Array>
          </mxGeometry>
        </mxCell>
        <mxCell id="ofMcQzHs0EKGXhN8fsgD-68" value="Завершить диалог" style="points=[[0.25,0,0],[0.5,0,0],[0.75,0,0],[1,0.25,0],[1,0.5,0],[1,0.75,0],[0.75,1,0],[0.5,1,0],[0.25,1,0],[0,0.75,0],[0,0.5,0],[0,0.25,0]];shape=mxgraph.bpmn.task;whiteSpace=wrap;rectStyle=rounded;size=10;html=1;container=1;expand=0;collapsible=0;taskMarker=abstract;" parent="ofMcQzHs0EKGXhN8fsgD-45" vertex="1">
          <mxGeometry x="370" y="77.5" width="190" height="35" as="geometry" />
        </mxCell>
        <mxCell id="ofMcQzHs0EKGXhN8fsgD-75" style="edgeStyle=orthogonalEdgeStyle;rounded=0;orthogonalLoop=1;jettySize=auto;html=1;entryX=0.5;entryY=0;entryDx=0;entryDy=0;entryPerimeter=0;" parent="ofMcQzHs0EKGXhN8fsgD-45" source="ofMcQzHs0EKGXhN8fsgD-71" target="ofMcQzHs0EKGXhN8fsgD-74" edge="1">
          <mxGeometry relative="1" as="geometry" />
        </mxCell>
        <mxCell id="ofMcQzHs0EKGXhN8fsgD-71" value="Записать принятое сообщение в t_Async_DocReestr_PostingResults" style="points=[[0.25,0,0],[0.5,0,0],[0.75,0,0],[1,0.25,0],[1,0.5,0],[1,0.75,0],[0.75,1,0],[0.5,1,0],[0.25,1,0],[0,0.75,0],[0,0.5,0],[0,0.25,0]];shape=mxgraph.bpmn.task;whiteSpace=wrap;rectStyle=rounded;size=10;html=1;container=1;expand=0;collapsible=0;taskMarker=abstract;" parent="ofMcQzHs0EKGXhN8fsgD-45" vertex="1">
          <mxGeometry x="345" y="135" width="215" height="52.5" as="geometry" />
        </mxCell>
        <mxCell id="ofMcQzHs0EKGXhN8fsgD-142" style="edgeStyle=orthogonalEdgeStyle;rounded=0;orthogonalLoop=1;jettySize=auto;html=1;" parent="ofMcQzHs0EKGXhN8fsgD-45" source="ofMcQzHs0EKGXhN8fsgD-74" target="ofMcQzHs0EKGXhN8fsgD-141" edge="1">
          <mxGeometry relative="1" as="geometry" />
        </mxCell>
        <mxCell id="ofMcQzHs0EKGXhN8fsgD-74" value="Провести документ по IDDocReestr&lt;br&gt;&lt;i&gt;p_DocumentGL&lt;/i&gt;" style="points=[[0.25,0,0],[0.5,0,0],[0.75,0,0],[1,0.25,0],[1,0.5,0],[1,0.75,0],[0.75,1,0],[0.5,1,0],[0.25,1,0],[0,0.75,0],[0,0.5,0],[0,0.25,0]];shape=mxgraph.bpmn.task;whiteSpace=wrap;rectStyle=rounded;size=10;html=1;container=1;expand=0;collapsible=0;taskMarker=abstract;" parent="ofMcQzHs0EKGXhN8fsgD-45" vertex="1">
          <mxGeometry x="345" y="207.5" width="215" height="52.5" as="geometry" />
        </mxCell>
        <mxCell id="ofMcQzHs0EKGXhN8fsgD-79" value="" style="points=[[0.145,0.145,0],[0.5,0,0],[0.855,0.145,0],[1,0.5,0],[0.855,0.855,0],[0.5,1,0],[0.145,0.855,0],[0,0.5,0]];shape=mxgraph.bpmn.event;html=1;verticalLabelPosition=bottom;labelBackgroundColor=#ffffff;verticalAlign=top;align=center;perimeter=ellipsePerimeter;outlineConnect=0;aspect=fixed;outline=throwing;symbol=general;" parent="ofMcQzHs0EKGXhN8fsgD-45" vertex="1">
          <mxGeometry x="220" y="208.75" width="50" height="50" as="geometry" />
        </mxCell>
        <mxCell id="ofMcQzHs0EKGXhN8fsgD-109" style="edgeStyle=orthogonalEdgeStyle;rounded=0;orthogonalLoop=1;jettySize=auto;html=1;entryX=0.5;entryY=1;entryDx=0;entryDy=0;entryPerimeter=0;" parent="ofMcQzHs0EKGXhN8fsgD-45" source="ofMcQzHs0EKGXhN8fsgD-106" target="ofMcQzHs0EKGXhN8fsgD-42" edge="1">
          <mxGeometry relative="1" as="geometry" />
        </mxCell>
        <mxCell id="ofMcQzHs0EKGXhN8fsgD-106" value="&lt;br&gt;Отправка сообщения ReplyMessage с результатом проведения&lt;br&gt;в очередь InitiatorQueue" style="points=[[0.25,0,0],[0.5,0,0],[0.75,0,0],[1,0.25,0],[1,0.5,0],[1,0.75,0],[0.75,1,0],[0.5,1,0],[0.25,1,0],[0,0.75,0],[0,0.5,0],[0,0.25,0]];shape=mxgraph.bpmn.task;whiteSpace=wrap;rectStyle=rounded;size=10;html=1;container=1;expand=0;collapsible=0;taskMarker=receive;" parent="ofMcQzHs0EKGXhN8fsgD-45" vertex="1">
          <mxGeometry x="342.5" y="370" width="217.5" height="80" as="geometry" />
        </mxCell>
        <mxCell id="ofMcQzHs0EKGXhN8fsgD-143" style="edgeStyle=orthogonalEdgeStyle;rounded=0;orthogonalLoop=1;jettySize=auto;html=1;entryX=0.5;entryY=0;entryDx=0;entryDy=0;entryPerimeter=0;" parent="ofMcQzHs0EKGXhN8fsgD-45" source="ofMcQzHs0EKGXhN8fsgD-141" target="ofMcQzHs0EKGXhN8fsgD-106" edge="1">
          <mxGeometry relative="1" as="geometry" />
        </mxCell>
        <mxCell id="ofMcQzHs0EKGXhN8fsgD-141" value="Обновить статус по результатам проведения t_Async_DocReestr_PostingResults" style="points=[[0.25,0,0],[0.5,0,0],[0.75,0,0],[1,0.25,0],[1,0.5,0],[1,0.75,0],[0.75,1,0],[0.5,1,0],[0.25,1,0],[0,0.75,0],[0,0.5,0],[0,0.25,0]];shape=mxgraph.bpmn.task;whiteSpace=wrap;rectStyle=rounded;size=10;html=1;container=1;expand=0;collapsible=0;taskMarker=abstract;" parent="ofMcQzHs0EKGXhN8fsgD-45" vertex="1">
          <mxGeometry x="345" y="290" width="215" height="52.5" as="geometry" />
        </mxCell>
        <mxCell id="ofMcQzHs0EKGXhN8fsgD-91" style="edgeStyle=orthogonalEdgeStyle;rounded=0;orthogonalLoop=1;jettySize=auto;html=1;" parent="ofMcQzHs0EKGXhN8fsgD-16" source="ofMcQzHs0EKGXhN8fsgD-88" target="ofMcQzHs0EKGXhN8fsgD-42" edge="1">
          <mxGeometry relative="1" as="geometry" />
        </mxCell>
        <mxCell id="ofMcQzHs0EKGXhN8fsgD-88" value="" style="points=[[0.145,0.145,0],[0.5,0,0],[0.855,0.145,0],[1,0.5,0],[0.855,0.855,0],[0.5,1,0],[0.145,0.855,0],[0,0.5,0]];shape=mxgraph.bpmn.event;html=1;verticalLabelPosition=bottom;labelBackgroundColor=#ffffff;verticalAlign=top;align=center;perimeter=ellipsePerimeter;outlineConnect=0;aspect=fixed;outline=standard;symbol=message;" parent="ofMcQzHs0EKGXhN8fsgD-16" vertex="1">
          <mxGeometry x="50" y="80" width="50" height="50" as="geometry" />
        </mxCell>
        <mxCell id="ofMcQzHs0EKGXhN8fsgD-20" value="InitiatorService" style="swimlane;html=1;startSize=20;horizontal=0;" parent="ofMcQzHs0EKGXhN8fsgD-15" vertex="1">
          <mxGeometry y="540" width="840" height="340" as="geometry" />
        </mxCell>
        <mxCell id="ofMcQzHs0EKGXhN8fsgD-86" value="ResultManager" style="swimlane;startSize=20;horizontal=0;html=1;whiteSpace=wrap;fillColor=#dae8fc;strokeColor=#6c8ebf;" parent="ofMcQzHs0EKGXhN8fsgD-20" vertex="1">
          <mxGeometry x="130" y="20" width="620" height="290" as="geometry" />
        </mxCell>
        <mxCell id="ofMcQzHs0EKGXhN8fsgD-131" style="edgeStyle=orthogonalEdgeStyle;rounded=0;orthogonalLoop=1;jettySize=auto;html=1;" parent="ofMcQzHs0EKGXhN8fsgD-86" source="ofMcQzHs0EKGXhN8fsgD-105" target="ofMcQzHs0EKGXhN8fsgD-127" edge="1">
          <mxGeometry relative="1" as="geometry" />
        </mxCell>
        <mxCell id="ofMcQzHs0EKGXhN8fsgD-105" value="Чтение сообщения из очереди InitiatorQueue" style="points=[[0.25,0,0],[0.5,0,0],[0.75,0,0],[1,0.25,0],[1,0.5,0],[1,0.75,0],[0.75,1,0],[0.5,1,0],[0.25,1,0],[0,0.75,0],[0,0.5,0],[0,0.25,0]];shape=mxgraph.bpmn.task;whiteSpace=wrap;rectStyle=rounded;size=10;html=1;container=1;expand=0;collapsible=0;taskMarker=abstract;" parent="ofMcQzHs0EKGXhN8fsgD-86" vertex="1">
          <mxGeometry x="40" y="50" width="120" height="80" as="geometry" />
        </mxCell>
        <mxCell id="ofMcQzHs0EKGXhN8fsgD-127" value="" style="points=[[0.25,0.25,0],[0.5,0,0],[0.75,0.25,0],[1,0.5,0],[0.75,0.75,0],[0.5,1,0],[0.25,0.75,0],[0,0.5,0]];shape=mxgraph.bpmn.gateway2;html=1;verticalLabelPosition=bottom;labelBackgroundColor=#ffffff;verticalAlign=top;align=center;perimeter=rhombusPerimeter;outlineConnect=0;outline=end;symbol=general;" parent="ofMcQzHs0EKGXhN8fsgD-86" vertex="1">
          <mxGeometry x="220" y="65" width="50" height="50" as="geometry" />
        </mxCell>
        <mxCell id="ofMcQzHs0EKGXhN8fsgD-132" style="edgeStyle=orthogonalEdgeStyle;rounded=0;orthogonalLoop=1;jettySize=auto;html=1;entryX=0.5;entryY=0;entryDx=0;entryDy=0;entryPerimeter=0;exitX=1;exitY=0.5;exitDx=0;exitDy=0;exitPerimeter=0;" parent="ofMcQzHs0EKGXhN8fsgD-86" source="ofMcQzHs0EKGXhN8fsgD-128" target="ofMcQzHs0EKGXhN8fsgD-105" edge="1">
          <mxGeometry relative="1" as="geometry">
            <Array as="points">
              <mxPoint x="520" y="37" />
              <mxPoint x="520" y="10" />
              <mxPoint x="100" y="10" />
            </Array>
          </mxGeometry>
        </mxCell>
        <mxCell id="ofMcQzHs0EKGXhN8fsgD-128" value="Завершить диалог" style="points=[[0.25,0,0],[0.5,0,0],[0.75,0,0],[1,0.25,0],[1,0.5,0],[1,0.75,0],[0.75,1,0],[0.5,1,0],[0.25,1,0],[0,0.75,0],[0,0.5,0],[0,0.25,0]];shape=mxgraph.bpmn.task;whiteSpace=wrap;rectStyle=rounded;size=10;html=1;container=1;expand=0;collapsible=0;taskMarker=abstract;" parent="ofMcQzHs0EKGXhN8fsgD-86" vertex="1">
          <mxGeometry x="370" y="20" width="120" height="35" as="geometry" />
        </mxCell>
        <mxCell id="ofMcQzHs0EKGXhN8fsgD-123" style="edgeStyle=orthogonalEdgeStyle;rounded=0;orthogonalLoop=1;jettySize=auto;html=1;entryX=0;entryY=0.5;entryDx=0;entryDy=0;entryPerimeter=0;exitX=0.5;exitY=0;exitDx=0;exitDy=0;exitPerimeter=0;" parent="ofMcQzHs0EKGXhN8fsgD-86" source="ofMcQzHs0EKGXhN8fsgD-127" target="ofMcQzHs0EKGXhN8fsgD-128" edge="1">
          <mxGeometry relative="1" as="geometry" />
        </mxCell>
        <mxCell id="ofMcQzHs0EKGXhN8fsgD-124" value="EndDialog" style="edgeLabel;html=1;align=center;verticalAlign=middle;resizable=0;points=[];" parent="ofMcQzHs0EKGXhN8fsgD-123" vertex="1" connectable="0">
          <mxGeometry x="-0.225" y="2" relative="1" as="geometry">
            <mxPoint x="24" y="-7" as="offset" />
          </mxGeometry>
        </mxCell>
        <mxCell id="ofMcQzHs0EKGXhN8fsgD-135" style="edgeStyle=orthogonalEdgeStyle;rounded=0;orthogonalLoop=1;jettySize=auto;html=1;" parent="ofMcQzHs0EKGXhN8fsgD-86" source="ofMcQzHs0EKGXhN8fsgD-129" target="ofMcQzHs0EKGXhN8fsgD-133" edge="1">
          <mxGeometry relative="1" as="geometry" />
        </mxCell>
        <mxCell id="ofMcQzHs0EKGXhN8fsgD-129" value="Завершить диалог" style="points=[[0.25,0,0],[0.5,0,0],[0.75,0,0],[1,0.25,0],[1,0.5,0],[1,0.75,0],[0.75,1,0],[0.5,1,0],[0.25,1,0],[0,0.75,0],[0,0.5,0],[0,0.25,0]];shape=mxgraph.bpmn.task;whiteSpace=wrap;rectStyle=rounded;size=10;html=1;container=1;expand=0;collapsible=0;taskMarker=abstract;" parent="ofMcQzHs0EKGXhN8fsgD-86" vertex="1">
          <mxGeometry x="370" y="72.5" width="120" height="35" as="geometry" />
        </mxCell>
        <mxCell id="ofMcQzHs0EKGXhN8fsgD-125" style="edgeStyle=orthogonalEdgeStyle;rounded=0;orthogonalLoop=1;jettySize=auto;html=1;entryX=0;entryY=0.5;entryDx=0;entryDy=0;entryPerimeter=0;exitX=1;exitY=0.5;exitDx=0;exitDy=0;exitPerimeter=0;" parent="ofMcQzHs0EKGXhN8fsgD-86" source="ofMcQzHs0EKGXhN8fsgD-127" target="ofMcQzHs0EKGXhN8fsgD-129" edge="1">
          <mxGeometry relative="1" as="geometry">
            <mxPoint x="310" y="95" as="sourcePoint" />
          </mxGeometry>
        </mxCell>
        <mxCell id="ofMcQzHs0EKGXhN8fsgD-126" value="RequestMessage" style="edgeLabel;html=1;align=center;verticalAlign=middle;resizable=0;points=[];" parent="ofMcQzHs0EKGXhN8fsgD-125" vertex="1" connectable="0">
          <mxGeometry x="-0.4596" y="3" relative="1" as="geometry">
            <mxPoint x="25" y="-11" as="offset" />
          </mxGeometry>
        </mxCell>
        <mxCell id="ofMcQzHs0EKGXhN8fsgD-140" style="edgeStyle=orthogonalEdgeStyle;rounded=0;orthogonalLoop=1;jettySize=auto;html=1;entryX=0.5;entryY=1;entryDx=0;entryDy=0;entryPerimeter=0;" parent="ofMcQzHs0EKGXhN8fsgD-86" source="ofMcQzHs0EKGXhN8fsgD-133" target="ofMcQzHs0EKGXhN8fsgD-105" edge="1">
          <mxGeometry relative="1" as="geometry">
            <Array as="points">
              <mxPoint x="430" y="250" />
              <mxPoint x="100" y="250" />
            </Array>
          </mxGeometry>
        </mxCell>
        <mxCell id="ofMcQzHs0EKGXhN8fsgD-133" value="Записать результат работы асинхронного проведения в t_Async_DocReestr_Log" style="points=[[0.25,0,0],[0.5,0,0],[0.75,0,0],[1,0.25,0],[1,0.5,0],[1,0.75,0],[0.75,1,0],[0.5,1,0],[0.25,1,0],[0,0.75,0],[0,0.5,0],[0,0.25,0]];shape=mxgraph.bpmn.task;whiteSpace=wrap;rectStyle=rounded;size=10;html=1;container=1;expand=0;collapsible=0;taskMarker=abstract;" parent="ofMcQzHs0EKGXhN8fsgD-86" vertex="1">
          <mxGeometry x="355" y="140" width="150" height="80" as="geometry" />
        </mxCell>
        <mxCell id="ofMcQzHs0EKGXhN8fsgD-136" style="edgeStyle=orthogonalEdgeStyle;rounded=0;orthogonalLoop=1;jettySize=auto;html=1;exitX=0.5;exitY=1;exitDx=0;exitDy=0;exitPerimeter=0;entryX=0.5;entryY=0;entryDx=0;entryDy=0;entryPerimeter=0;" parent="ofMcQzHs0EKGXhN8fsgD-86" source="ofMcQzHs0EKGXhN8fsgD-127" target="ofMcQzHs0EKGXhN8fsgD-138" edge="1">
          <mxGeometry relative="1" as="geometry">
            <mxPoint x="245" y="91.25" as="sourcePoint" />
            <mxPoint x="245" y="178.75" as="targetPoint" />
          </mxGeometry>
        </mxCell>
        <mxCell id="ofMcQzHs0EKGXhN8fsgD-137" value="Нет сообщений&lt;br&gt;в очереди" style="edgeLabel;html=1;align=center;verticalAlign=middle;resizable=0;points=[];" parent="ofMcQzHs0EKGXhN8fsgD-136" vertex="1" connectable="0">
          <mxGeometry x="0.2221" relative="1" as="geometry">
            <mxPoint x="45" y="-10" as="offset" />
          </mxGeometry>
        </mxCell>
        <mxCell id="ofMcQzHs0EKGXhN8fsgD-138" value="" style="points=[[0.145,0.145,0],[0.5,0,0],[0.855,0.145,0],[1,0.5,0],[0.855,0.855,0],[0.5,1,0],[0.145,0.855,0],[0,0.5,0]];shape=mxgraph.bpmn.event;html=1;verticalLabelPosition=bottom;labelBackgroundColor=#ffffff;verticalAlign=top;align=center;perimeter=ellipsePerimeter;outlineConnect=0;aspect=fixed;outline=throwing;symbol=general;" parent="ofMcQzHs0EKGXhN8fsgD-86" vertex="1">
          <mxGeometry x="220" y="180" width="50" height="50" as="geometry" />
        </mxCell>
        <mxCell id="ofMcQzHs0EKGXhN8fsgD-119" style="edgeStyle=orthogonalEdgeStyle;rounded=0;orthogonalLoop=1;jettySize=auto;html=1;entryX=0;entryY=0.5;entryDx=0;entryDy=0;entryPerimeter=0;" parent="ofMcQzHs0EKGXhN8fsgD-20" source="ofMcQzHs0EKGXhN8fsgD-92" target="ofMcQzHs0EKGXhN8fsgD-105" edge="1">
          <mxGeometry relative="1" as="geometry" />
        </mxCell>
        <mxCell id="ofMcQzHs0EKGXhN8fsgD-92" value="" style="points=[[0.145,0.145,0],[0.5,0,0],[0.855,0.145,0],[1,0.5,0],[0.855,0.855,0],[0.5,1,0],[0.145,0.855,0],[0,0.5,0]];shape=mxgraph.bpmn.event;html=1;verticalLabelPosition=bottom;labelBackgroundColor=#ffffff;verticalAlign=top;align=center;perimeter=ellipsePerimeter;outlineConnect=0;aspect=fixed;outline=standard;symbol=message;" parent="ofMcQzHs0EKGXhN8fsgD-20" vertex="1">
          <mxGeometry x="50" y="85" width="50" height="50" as="geometry" />
        </mxCell>
        <mxCell id="ofMcQzHs0EKGXhN8fsgD-104" style="edgeStyle=orthogonalEdgeStyle;rounded=1;orthogonalLoop=1;jettySize=auto;html=1;entryX=0.5;entryY=0;entryDx=0;entryDy=0;entryPerimeter=0;dashed=1;exitX=0.5;exitY=1;exitDx=0;exitDy=0;exitPerimeter=0;" parent="ofMcQzHs0EKGXhN8fsgD-15" source="ofMcQzHs0EKGXhN8fsgD-106" target="ofMcQzHs0EKGXhN8fsgD-92" edge="1">
          <mxGeometry relative="1" as="geometry">
            <mxPoint x="720" y="350" as="sourcePoint" />
            <Array as="points">
              <mxPoint x="560" y="520" />
              <mxPoint x="75" y="520" />
            </Array>
          </mxGeometry>
        </mxCell>
        <mxCell id="ofMcQzHs0EKGXhN8fsgD-24" value="Пользователь" style="swimlane;startSize=20;horizontal=0;html=1;whiteSpace=wrap;" parent="1" vertex="1">
          <mxGeometry x="70" y="700" width="690" height="120" as="geometry" />
        </mxCell>
        <mxCell id="ofMcQzHs0EKGXhN8fsgD-18" value="" style="points=[[0.145,0.145,0],[0.5,0,0],[0.855,0.145,0],[1,0.5,0],[0.855,0.855,0],[0.5,1,0],[0.145,0.855,0],[0,0.5,0]];shape=mxgraph.bpmn.event;html=1;verticalLabelPosition=bottom;labelBackgroundColor=#ffffff;verticalAlign=top;align=center;perimeter=ellipsePerimeter;outlineConnect=0;aspect=fixed;outline=standard;symbol=general;" parent="ofMcQzHs0EKGXhN8fsgD-24" vertex="1">
          <mxGeometry x="40" y="30" width="50" height="50" as="geometry" />
        </mxCell>
        <mxCell id="ofMcQzHs0EKGXhN8fsgD-19" value="Запуск асинхронного проведения документа&lt;br&gt;по IDDocReestr" style="points=[[0.25,0,0],[0.5,0,0],[0.75,0,0],[1,0.25,0],[1,0.5,0],[1,0.75,0],[0.75,1,0],[0.5,1,0],[0.25,1,0],[0,0.75,0],[0,0.5,0],[0,0.25,0]];shape=mxgraph.bpmn.task;whiteSpace=wrap;rectStyle=rounded;size=10;html=1;container=1;expand=0;collapsible=0;taskMarker=abstract;" parent="ofMcQzHs0EKGXhN8fsgD-24" vertex="1">
          <mxGeometry x="130" y="20" width="140" height="70" as="geometry" />
        </mxCell>
        <mxCell id="ofMcQzHs0EKGXhN8fsgD-17" style="edgeStyle=orthogonalEdgeStyle;rounded=0;orthogonalLoop=1;jettySize=auto;html=1;entryX=0;entryY=0.5;entryDx=0;entryDy=0;entryPerimeter=0;" parent="ofMcQzHs0EKGXhN8fsgD-24" source="ofMcQzHs0EKGXhN8fsgD-18" target="ofMcQzHs0EKGXhN8fsgD-19" edge="1">
          <mxGeometry relative="1" as="geometry" />
        </mxCell>
        <mxCell id="ofMcQzHs0EKGXhN8fsgD-146" style="edgeStyle=orthogonalEdgeStyle;rounded=0;orthogonalLoop=1;jettySize=auto;html=1;" parent="ofMcQzHs0EKGXhN8fsgD-24" source="ofMcQzHs0EKGXhN8fsgD-144" target="ofMcQzHs0EKGXhN8fsgD-145" edge="1">
          <mxGeometry relative="1" as="geometry" />
        </mxCell>
        <mxCell id="ofMcQzHs0EKGXhN8fsgD-144" value="" style="points=[[0.145,0.145,0],[0.5,0,0],[0.855,0.145,0],[1,0.5,0],[0.855,0.855,0],[0.5,1,0],[0.145,0.855,0],[0,0.5,0]];shape=mxgraph.bpmn.event;html=1;verticalLabelPosition=bottom;labelBackgroundColor=#ffffff;verticalAlign=top;align=center;perimeter=ellipsePerimeter;outlineConnect=0;aspect=fixed;outline=standard;symbol=general;" parent="ofMcQzHs0EKGXhN8fsgD-24" vertex="1">
          <mxGeometry x="410" y="30" width="50" height="50" as="geometry" />
        </mxCell>
        <mxCell id="ofMcQzHs0EKGXhN8fsgD-145" value="Просмотр результатов проведения в ПО SCOUT" style="points=[[0.25,0,0],[0.5,0,0],[0.75,0,0],[1,0.25,0],[1,0.5,0],[1,0.75,0],[0.75,1,0],[0.5,1,0],[0.25,1,0],[0,0.75,0],[0,0.5,0],[0,0.25,0]];shape=mxgraph.bpmn.task;whiteSpace=wrap;rectStyle=rounded;size=10;html=1;container=1;expand=0;collapsible=0;taskMarker=abstract;" parent="ofMcQzHs0EKGXhN8fsgD-24" vertex="1">
          <mxGeometry x="510" y="20" width="140" height="70" as="geometry" />
        </mxCell>
        <mxCell id="ofMcQzHs0EKGXhN8fsgD-25" value="SendMessage" style="swimlane;startSize=20;horizontal=0;html=1;whiteSpace=wrap;fillColor=#dae8fc;strokeColor=#6c8ebf;" parent="1" vertex="1">
          <mxGeometry x="70" y="840" width="320" height="120" as="geometry" />
        </mxCell>
        <mxCell id="ofMcQzHs0EKGXhN8fsgD-32" value="&lt;br&gt;Отправка сообщения RequestMessage c IDDocReestr&lt;br&gt;&amp;nbsp;в очередь TargetQueue" style="points=[[0.25,0,0],[0.5,0,0],[0.75,0,0],[1,0.25,0],[1,0.5,0],[1,0.75,0],[0.75,1,0],[0.5,1,0],[0.25,1,0],[0,0.75,0],[0,0.5,0],[0,0.25,0]];shape=mxgraph.bpmn.task;whiteSpace=wrap;rectStyle=rounded;size=10;html=1;container=1;expand=0;collapsible=0;taskMarker=receive;" parent="ofMcQzHs0EKGXhN8fsgD-25" vertex="1">
          <mxGeometry x="130" y="20" width="140" height="90" as="geometry" />
        </mxCell>
        <mxCell id="ofMcQzHs0EKGXhN8fsgD-89" style="edgeStyle=orthogonalEdgeStyle;orthogonalLoop=1;jettySize=auto;html=1;dashed=1;rounded=1;" parent="1" source="ofMcQzHs0EKGXhN8fsgD-32" target="ofMcQzHs0EKGXhN8fsgD-88" edge="1">
          <mxGeometry relative="1" as="geometry" />
        </mxCell>
        <mxCell id="ofMcQzHs0EKGXhN8fsgD-118" style="edgeStyle=orthogonalEdgeStyle;rounded=0;orthogonalLoop=1;jettySize=auto;html=1;" parent="1" source="ofMcQzHs0EKGXhN8fsgD-19" target="ofMcQzHs0EKGXhN8fsgD-32" edge="1">
          <mxGeometry relative="1" as="geometry" />
        </mxCell>
      </root>
    </mxGraphModel>
  </diagram>
</mxfile>
